<svg width="512" height="512" viewBox="0 0 512 512" fill="none" xmlns="http://www.w3.org/2000/svg">
<path d="M289.528 433.645C287.973 430.37 286.559 427.094 285.428 423.677L238.338 310.333H365.607C412.413 310.333 450.453 348.637 450.453 395.768C450.453 442.9 412.413 481.203 365.607 481.203C332.234 481.203 303.387 461.838 289.528 433.645Z" fill="#1185FE"/>
<path d="M394.17 338.244C415.24 348.638 429.805 370.566 429.805 395.77C429.805 430.94 402.23 459.276 367.444 459.846C342.556 460.273 320.213 446.604 309.183 424.106L309.042 423.963C309.042 423.821 308.9 423.821 308.9 423.679C305.789 416.986 307.203 408.87 312.435 403.601L373.949 341.661C379.322 336.25 387.382 334.826 394.17 338.244Z" fill="#E55043"/>
<path d="M296.033 331.692H342.981C350.759 331.692 354.577 341.09 349.062 346.501L307.346 388.506C302.962 392.921 295.609 391.354 293.205 385.659L280.478 355.044C275.812 344.08 284.013 331.692 296.033 331.692Z" fill="#E55043"/>
<path d="M222.5 433.645C224.056 430.37 225.47 427.094 226.601 423.677L273.691 310.333H146.422C99.6153 310.333 61.5761 348.637 61.5761 395.768C61.5761 442.9 99.6153 481.203 146.422 481.203C179.795 481.203 208.642 461.838 222.5 433.645Z" fill="#1185FE"/>
<path d="M118.423 338.244C97.3527 348.638 82.7875 370.566 82.7875 395.77C82.7875 430.94 110.362 459.276 145.149 459.846C170.037 460.273 192.38 446.604 203.41 424.106L203.551 423.821C203.551 423.679 203.693 423.679 203.693 423.536C206.804 416.844 205.39 408.727 200.158 403.459L138.644 341.661C133.271 336.25 125.21 334.826 118.423 338.244Z" fill="#E55043"/>
<path d="M216.561 331.692H169.613C161.835 331.692 158.017 341.09 163.532 346.501L205.248 388.506C209.632 392.921 216.985 391.354 219.389 385.659L232.116 355.044C236.783 344.08 228.581 331.692 216.561 331.692Z" fill="#E55043"/>
<path d="M256.014 186.024L79.7329 35.9962C71.8743 29.3879 61.6939 25.28 50.6205 25.28C25.9733 25.28 5.96973 45.2836 5.96973 69.9308V244.07C5.96973 281.04 35.9749 311.046 72.946 311.046H256.014V186.024Z" fill="#1185FE"/>
<path d="M45.7979 136.016V96.3658C45.7979 82.2561 62.2294 74.3976 73.1242 83.3277L242.262 221.746V269.969L63.4796 166.735C52.5848 160.484 45.7979 148.697 45.7979 136.016Z" fill="url(#paint0_linear_5_400)"/>
<path d="M67.5875 189.776L152.603 238.892C159.033 242.643 160.104 251.216 154.925 256.395L130.456 280.864C122.597 288.722 111.881 293.187 100.808 293.187C70.4452 293.187 45.7979 268.54 45.7979 238.177V202.457C45.7979 191.205 57.9429 184.061 67.5875 189.776Z" fill="url(#paint1_linear_5_400)"/>
<path d="M192.789 261.932L242.262 290.508V293.187H163.498C156.175 293.187 152.424 284.257 157.604 279.078L171.892 264.789C177.429 259.253 186.002 258.181 192.789 261.932Z" fill="url(#paint2_linear_5_400)"/>
<path d="M255.925 186.024L432.206 35.9962C440.065 29.3879 450.245 25.28 461.319 25.28C485.966 25.28 505.97 45.2836 505.97 69.9308V244.07C505.97 281.04 475.964 311.046 438.993 311.046H255.925V186.024Z" fill="#1185FE"/>
<path d="M470.338 136.016V96.3658C470.338 82.2561 453.907 74.3976 443.012 83.3277L273.875 221.746V269.969L452.657 166.735C463.551 160.484 470.338 148.697 470.338 136.016Z" fill="url(#paint3_linear_5_400)"/>
<path d="M448.549 189.776L363.534 238.892C357.104 242.643 356.032 251.216 361.212 256.395L385.68 280.864C393.539 288.722 404.255 293.187 415.328 293.187C445.691 293.187 470.338 268.54 470.338 238.177V202.457C470.338 191.205 458.193 184.061 448.549 189.776Z" fill="url(#paint4_linear_5_400)"/>
<path d="M323.348 261.932L273.875 290.508V293.187H352.639C359.961 293.187 363.712 284.257 358.533 279.078L344.244 264.789C338.708 259.253 330.135 258.181 323.348 261.932Z" fill="url(#paint5_linear_5_400)"/>
<path d="M461.318 25.2802C485.966 25.2802 505.97 45.2834 505.97 69.9305V244.069C505.97 281.04 475.964 311.046 438.993 311.046H376.591C418.222 316.481 450.452 352.384 450.452 395.768C450.452 442.9 412.413 481.203 365.606 481.203C332.234 481.203 303.386 461.838 289.528 433.644C287.973 430.369 286.559 427.094 285.428 423.677L256.014 352.879L226.602 423.677C225.47 427.094 224.056 430.369 222.5 433.644C208.642 461.838 179.795 481.203 146.422 481.203C99.6153 481.203 61.5762 442.9 61.5762 395.768C61.5762 352.384 93.8065 316.481 135.438 311.046H72.9463C35.9752 311.046 5.96973 281.04 5.96973 244.069V69.9305C5.96992 45.2836 25.9732 25.2804 50.6201 25.2802C61.6933 25.2802 71.8739 29.3879 79.7324 35.996L255.969 185.984L432.206 35.996C440.064 29.3877 450.245 25.2803 461.318 25.2802Z" fill="white"/>
<path d="M118.423 338.243C125.211 334.826 133.271 336.25 138.644 341.661L200.158 403.459C205.39 408.727 206.804 416.843 203.693 423.536C203.693 423.678 203.552 423.678 203.551 423.82L203.41 424.105C192.38 446.603 170.037 460.272 145.149 459.845C110.362 459.276 82.7875 430.94 82.7875 395.769C82.7876 370.566 97.3533 348.637 118.423 338.243ZM373.949 341.661C379.322 336.25 387.383 334.825 394.17 338.243C415.24 348.637 429.805 370.566 429.805 395.769C429.805 430.94 402.231 459.276 367.444 459.845C342.556 460.272 320.213 446.603 309.183 424.105L309.041 423.962C309.041 423.82 308.9 423.82 308.9 423.678C305.789 416.986 307.203 408.87 312.435 403.601L373.949 341.661ZM216.561 331.692C228.581 331.692 236.782 344.08 232.116 355.045L219.389 385.658C216.985 391.353 209.632 392.92 205.248 388.506L163.533 346.501C158.018 341.09 161.835 331.692 169.613 331.692H216.561ZM342.981 331.692C350.758 331.692 354.577 341.09 349.062 346.501L307.346 388.506C302.962 392.92 295.609 391.353 293.206 385.658L280.478 355.045C275.811 344.08 284.014 331.692 296.034 331.692H342.981ZM45.7983 202.457C45.7983 191.205 57.9428 184.061 67.5873 189.776L152.603 238.891C159.033 242.642 160.105 251.216 154.925 256.395L130.456 280.864C122.597 288.722 111.881 293.187 100.808 293.187C70.4455 293.187 45.7983 268.54 45.7983 238.177V202.457ZM171.892 264.79C177.429 259.253 186.002 258.181 192.789 261.931L242.262 290.508V293.187H163.497C156.175 293.187 152.425 284.257 157.604 279.078L171.892 264.79ZM323.348 261.931C330.135 258.181 338.708 259.253 344.245 264.79L358.533 279.078C363.712 284.257 359.962 293.187 352.639 293.187H273.874V290.508L323.348 261.931ZM448.548 189.776C458.193 184.061 470.338 191.205 470.338 202.457V238.177C470.338 268.54 445.691 293.187 415.329 293.187C404.255 293.187 393.539 288.722 385.68 280.864L361.211 256.395C356.032 251.216 357.104 242.642 363.534 238.891L448.548 189.776ZM45.7973 96.3658C45.7973 82.2561 62.2297 74.3975 73.1245 83.3277L242.262 221.746V269.968L63.4799 166.735C52.5851 160.484 45.7973 148.696 45.7973 136.015V96.3658ZM443.012 83.3277C453.907 74.3975 470.338 82.2561 470.338 96.3658V136.015C470.338 148.696 463.551 160.484 452.657 166.735L273.874 269.968V221.746L443.012 83.3277Z" fill="url(#paint6_linear_5_400)"/>
<circle cx="452" cy="77" r="60" fill="#E03E3E"/>
<defs>
<linearGradient id="paint0_linear_5_400" x1="66.2483" y1="68.8162" x2="171.178" y2="229.56" gradientUnits="userSpaceOnUse">
<stop stop-color="#E55043"/>
<stop offset="1" stop-color="#E55043"/>
</linearGradient>
<linearGradient id="paint1_linear_5_400" x1="125.411" y1="293.187" x2="57.3182" y2="198.304" gradientUnits="userSpaceOnUse">
<stop stop-color="#E55043"/>
<stop offset="1" stop-color="#E55043"/>
</linearGradient>
<linearGradient id="paint2_linear_5_400" x1="186.806" y1="242.955" x2="186.806" y2="305.466" gradientUnits="userSpaceOnUse">
<stop stop-color="#E55043"/>
<stop offset="1" stop-color="#E55043"/>
</linearGradient>
<linearGradient id="paint3_linear_5_400" x1="372.106" y1="23.9135" x2="372.106" y2="359.899" gradientUnits="userSpaceOnUse">
<stop stop-color="#FF8C00"/>
<stop offset="1" stop-color="#E55043"/>
</linearGradient>
<linearGradient id="paint4_linear_5_400" x1="414.084" y1="50.8307" x2="414.084" y2="350.056" gradientUnits="userSpaceOnUse">
<stop stop-color="#FF8C00"/>
<stop offset="1" stop-color="#E55043"/>
</linearGradient>
<linearGradient id="paint5_linear_5_400" x1="317.382" y1="50.8304" x2="317.382" y2="350.056" gradientUnits="userSpaceOnUse">
<stop stop-color="#FF8C00"/>
<stop offset="1" stop-color="#E55043"/>
</linearGradient>
<linearGradient id="paint6_linear_5_400" x1="317.382" y1="50.8305" x2="317.382" y2="350.056" gradientUnits="userSpaceOnUse">
<stop stop-color="#1185FE"/>
<stop offset="1" stop-color="#1164FE"/>
</linearGradient>
</defs>
</svg>
